<svg width="250" height="250" viewBox="0 0 250 250" fill="none" xmlns="http://www.w3.org/2000/svg">
<path d="M54.6616 160.768C54.1496 161.856 53.7336 162.656 53.4136 163.168C53.1576 163.68 52.6776 164.16 51.9736 164.608C51.3336 165.12 50.4696 165.376 49.3816 165.376C48.2936 165.376 46.6936 164.896 44.5816 163.936C42.4696 162.976 41.0296 162.112 40.2616 161.344C39.5576 160.64 39.2056 159.84 39.2056 158.944C39.2056 158.048 39.5896 156.448 40.3576 154.144L71.2696 89.536C72.4856 87.104 73.5736 85.696 74.5336 85.312C75.0456 85.056 75.7816 84.928 76.7416 84.928C77.7656 84.928 79.3976 85.44 81.6376 86.464C85.0936 88.128 86.8216 89.952 86.8216 91.936C86.8216 92.768 86.3736 94.368 85.4776 96.736L54.6616 160.768ZM105.193 160.768C104.681 161.856 104.265 162.656 103.945 163.168C103.689 163.68 103.209 164.16 102.505 164.608C101.865 165.12 101.001 165.376 99.9129 165.376C98.8249 165.376 97.2249 164.896 95.1129 163.936C93.0009 162.976 91.5609 162.112 90.7929 161.344C90.0889 160.64 89.7369 159.84 89.7369 158.944C89.7369 158.048 90.1209 156.448 90.8889 154.144L121.801 89.536C123.017 87.104 124.105 85.696 125.065 85.312C125.577 85.056 126.313 84.928 127.273 84.928C128.297 84.928 129.929 85.44 132.169 86.464C135.625 88.128 137.353 89.952 137.353 91.936C137.353 92.768 136.905 94.368 136.009 96.736L105.193 160.768ZM183.276 94.624L209.196 148.192C210.284 150.368 210.828 152 210.828 153.088C210.828 155.392 208.972 157.472 205.26 159.328C203.084 160.416 201.356 160.96 200.076 160.96C198.86 160.96 197.836 160.672 197.004 160.096C196.236 159.52 195.66 158.912 195.276 158.272C194.956 157.632 194.476 156.672 193.836 155.392L188.844 145.024H162.252L157.26 155.392C156.62 156.672 156.108 157.6 155.724 158.176C155.404 158.752 154.828 159.36 153.996 160C153.228 160.576 152.204 160.864 150.924 160.864C149.708 160.864 148.012 160.32 145.836 159.232C142.124 157.44 140.268 155.392 140.268 153.088C140.268 152 140.812 150.368 141.9 148.192L167.82 94.528C168.524 93.056 169.58 91.872 170.988 90.976C172.46 90.08 173.996 89.632 175.596 89.632C179.052 89.632 181.612 91.296 183.276 94.624ZM175.5 117.664L169.164 130.816H181.932L175.5 117.664Z" fill="url(#paint0_linear)"/>
<rect x="10" y="10" width="230" height="230" rx="115" stroke="url(#paint1_linear)" stroke-width="20"/>
<defs>
<linearGradient id="paint0_linear" x1="35" y1="125" x2="229" y2="125" gradientUnits="userSpaceOnUse">
<stop stop-color="#080038"/>
<stop offset="1" stop-color="#0024E1"/>
<stop offset="1" stop-color="#130089"/>
</linearGradient>
<linearGradient id="paint1_linear" x1="0" y1="125" x2="250" y2="125" gradientUnits="userSpaceOnUse">
<stop stop-color="#130089"/>
<stop offset="1" stop-color="#080038"/>
</linearGradient>
</defs>
</svg>
